<svg width="9.000000" height="5.000000" viewBox="0 0 9 5" fill="none" xmlns="http://www.w3.org/2000/svg" xmlns:xlink="http://www.w3.org/1999/xlink">
	<desc>
			Created with Pixso.
	</desc>
	<defs/>
	<path id="Rectangle" d="M8.94336 0.350769L4.63672 4.93982C4.56152 5.02005 4.43848 5.02005 4.36328 4.93982L0.0566406 0.350769C-0.0185547 0.270508 -0.0185547 0.140411 0.0566406 0.0601807C0.0927734 0.021637 0.141602 0 0.192383 0L8.80762 0C8.91406 0 9 0.09198 9 0.205475C9 0.259949 8.97949 0.312225 8.94336 0.350769Z" fill="#000000" fill-opacity="1.000000" fill-rule="evenodd"/>
	<path id="Rectangle" d="M4.63672 4.93982C4.56152 5.02005 4.43848 5.02005 4.36328 4.93982L0.0566406 0.350769C-0.0185547 0.270508 -0.0185547 0.140411 0.0566406 0.0601807C0.0927734 0.021637 0.141602 0 0.192383 0L8.80762 0C8.91406 0 9 0.09198 9 0.205475C9 0.259949 8.97949 0.312225 8.94336 0.350769L4.63672 4.93982Z" stroke="#979797" stroke-opacity="0" stroke-width="0.000000"/>
</svg>
